<?xml version="1.0" encoding="UTF-8" standalone="no"?>
<!-- Generator: Adobe Illustrator 19.1.0, SVG Export Plug-In . SVG Version: 6.00 Build 0)  -->

<svg
   xmlns:dc="http://purl.org/dc/elements/1.1/"
   xmlns:cc="http://creativecommons.org/ns#"
   xmlns:rdf="http://www.w3.org/1999/02/22-rdf-syntax-ns#"
   xmlns:svg="http://www.w3.org/2000/svg"
   xmlns="http://www.w3.org/2000/svg"
   xmlns:sodipodi="http://sodipodi.sourceforge.net/DTD/sodipodi-0.dtd"
   xmlns:inkscape="http://www.inkscape.org/namespaces/inkscape"
   version="1.1"
   id="Capa_1"
   x="0px"
   y="0px"
   viewBox="0 0 45.833105 45.833105"
   xml:space="preserve"
   width="50"
   height="50"
   inkscape:version="0.91 r13725"
   sodipodi:docname="edit.svg"><metadata
     id="metadata41"><rdf:RDF><cc:Work
         rdf:about=""><dc:format>image/svg+xml</dc:format><dc:type
           rdf:resource="http://purl.org/dc/dcmitype/StillImage" /><dc:title></dc:title></cc:Work></rdf:RDF></metadata><defs
     id="defs39" /><sodipodi:namedview
     pagecolor="#808080"
     bordercolor="#666666"
     borderopacity="1"
     objecttolerance="10"
     gridtolerance="10"
     guidetolerance="10"
     inkscape:pageopacity="0"
     inkscape:pageshadow="2"
     inkscape:window-width="1440"
     inkscape:window-height="852"
     id="namedview37"
     showgrid="false"
     inkscape:zoom="13"
     inkscape:cx="25"
     inkscape:cy="25"
     inkscape:window-x="0"
     inkscape:window-y="0"
     inkscape:window-maximized="1"
     inkscape:current-layer="Capa_1" /><g
     id="g3"
     transform="matrix(0.06835941,0,0,0.06835941,6.8749468,6.8749574)"><path
       d="m 438.931,30.403 c -40.4,-40.5 -106.1,-40.5 -146.5,0 l -268.6,268.5 c -2.1,2.1 -3.4,4.8 -3.8,7.7 l -19.9,147.4 c -0.6,4.2 0.9,8.4 3.8,11.3 2.5,2.5 6,4 9.5,4 0.6,0 1.2,0 1.8,-0.1 l 88.8,-12 c 7.4,-1 12.6,-7.8 11.6,-15.2 -1,-7.4 -7.8,-12.6 -15.2,-11.6 l -71.2,9.6 13.9,-102.8 108.2,108.2 c 2.5,2.5 6,4 9.5,4 3.5,0 7,-1.4 9.5,-4 l 268.6,-268.5 c 19.6,-19.6 30.4,-45.6 30.4,-73.3 0,-27.7 -10.8,-53.7 -30.4,-73.2 z m -141.3,33 45.1,45.1 -245.1,245.1 -45.1,-45.1 245.1,-245.1 z m -136.7,353.4 -44.1,-44.1 245.1,-245.1 44.1,44.1 -245.1,245.1 z m 263.9,-264.4 -107.9,-107.9 c 13.7,-11.3 30.8,-17.5 48.8,-17.5 20.5,0 39.7,8 54.2,22.4 14.5,14.4 22.4,33.7 22.4,54.2 0,18.1 -6.2,35.1 -17.5,48.8 z"
       id="path5"
       inkscape:connector-curvature="0"
       style="fill:#ffffff" /></g><g
     id="g7"
     transform="translate(0,-423.4979)" /><g
     id="g9"
     transform="translate(0,-423.4979)" /><g
     id="g11"
     transform="translate(0,-423.4979)" /><g
     id="g13"
     transform="translate(0,-423.4979)" /><g
     id="g15"
     transform="translate(0,-423.4979)" /><g
     id="g17"
     transform="translate(0,-423.4979)" /><g
     id="g19"
     transform="translate(0,-423.4979)" /><g
     id="g21"
     transform="translate(0,-423.4979)" /><g
     id="g23"
     transform="translate(0,-423.4979)" /><g
     id="g25"
     transform="translate(0,-423.4979)" /><g
     id="g27"
     transform="translate(0,-423.4979)" /><g
     id="g29"
     transform="translate(0,-423.4979)" /><g
     id="g31"
     transform="translate(0,-423.4979)" /><g
     id="g33"
     transform="translate(0,-423.4979)" /><g
     id="g35"
     transform="translate(0,-423.4979)" /></svg>