<?xml version="1.0" encoding="UTF-8" standalone="no"?>
<!-- Generator: Adobe Illustrator 18.1.1, SVG Export Plug-In . SVG Version: 6.00 Build 0)  -->

<svg
   xmlns:dc="http://purl.org/dc/elements/1.1/"
   xmlns:cc="http://creativecommons.org/ns#"
   xmlns:rdf="http://www.w3.org/1999/02/22-rdf-syntax-ns#"
   xmlns:svg="http://www.w3.org/2000/svg"
   xmlns="http://www.w3.org/2000/svg"
   xmlns:sodipodi="http://sodipodi.sourceforge.net/DTD/sodipodi-0.dtd"
   xmlns:inkscape="http://www.inkscape.org/namespaces/inkscape"
   version="1.1"
   id="Capa_1"
   x="0px"
   y="0px"
   viewBox="0 0 2.7141602 2.7141602"
   xml:space="preserve"
   width="50"
   height="50"
   inkscape:version="0.91 r13725"
   sodipodi:docname="gallery-add.svg"><metadata
     id="metadata77"><rdf:RDF><cc:Work
         rdf:about=""><dc:format>image/svg+xml</dc:format><dc:type
           rdf:resource="http://purl.org/dc/dcmitype/StillImage" /><dc:title></dc:title></cc:Work></rdf:RDF></metadata><defs
     id="defs75" /><sodipodi:namedview
     pagecolor="#808080"
     bordercolor="#666666"
     borderopacity="1"
     objecttolerance="10"
     gridtolerance="10"
     guidetolerance="10"
     inkscape:pageopacity="0"
     inkscape:pageshadow="2"
     inkscape:window-width="1440"
     inkscape:window-height="852"
     id="namedview73"
     showgrid="false"
     inkscape:zoom="13"
     inkscape:cx="25"
     inkscape:cy="25"
     inkscape:window-x="0"
     inkscape:window-y="0"
     inkscape:window-maximized="1"
     inkscape:current-layer="Capa_1" /><g
     id="g3"
     transform="matrix(0.05859375,0,0,0.05859375,0.54283212,0.54280282)"><path
       d="m 5.5,5.891 c -0.906,0 -1.643,0.736 -1.643,1.646 0,0.908 0.736,1.646 1.643,1.646 0.91,0 1.646,-0.738 1.646,-1.646 C 7.146,6.627 6.41,5.891 5.5,5.891 Z"
       id="path5"
       inkscape:connector-curvature="0"
       style="fill:#ffffff" /><path
       d="m 17.57,8.599 c 0.359,0.155 0.793,0.247 1.268,0.247 1.213,0 2.195,-0.592 2.195,-1.324 0,-0.731 -0.982,-1.324 -2.195,-1.324 -0.455,0 -0.879,0.083 -1.227,0.227 -0.145,-0.14 -0.34,-0.227 -0.553,-0.227 l -0.32,0 c -0.406,0 -0.729,0.309 -0.775,0.702 -0.984,0.103 -1.711,0.458 -1.711,0.884 0,0.507 1.023,0.916 2.293,0.916 0.369,-10e-4 0.715,-0.039 1.025,-0.101 z"
       id="path7"
       inkscape:connector-curvature="0"
       style="fill:#ffffff" /><path
       d="m 24.254,11.952 0,-8.987 c 0,-0.268 -0.217,-0.488 -0.49,-0.488 l -23.268,0 C 0.221,2.477 0,2.697 0,2.965 l 0,20.139 c 0,0.27 0.221,0.491 0.496,0.491 l 15.455,0 c 1.254,1.072 2.879,1.722 4.658,1.722 3.967,0 7.184,-3.215 7.184,-7.183 0,-2.636 -1.424,-4.933 -3.539,-6.182 z M 10.988,10.295 C 8.33,7.641 5.76,17.91 5.76,17.91 l -3.514,0 0,-13.207 20.172,0 0,6.487 c -0.578,-0.151 -1.182,-0.24 -1.809,-0.24 -3.037,0 -5.631,1.891 -6.678,4.557 -0.558,-1.639 -1.497,-3.762 -2.943,-5.212 z m 9.621,13.429 c -3.088,0 -5.59,-2.504 -5.59,-5.591 0,-3.087 2.502,-5.59 5.59,-5.59 3.088,0 5.592,2.502 5.592,5.59 0,3.088 -2.504,5.591 -5.592,5.591 z"
       id="path9"
       inkscape:connector-curvature="0"
       style="fill:#ffffff" /><polygon
       points="21.584,14.223 19.197,14.223 19.197,16.944 16.42,16.944 16.42,19.331 19.197,19.331 19.197,22.132 21.584,22.132 21.584,19.331 24.33,19.331 24.33,16.944 21.584,16.944 "
       id="polygon11"
       style="fill:#ffffff" /><g
       id="g13" /><g
       id="g15" /><g
       id="g17" /><g
       id="g19" /><g
       id="g21" /><g
       id="g23" /><g
       id="g25" /><g
       id="g27" /><g
       id="g29" /><g
       id="g31" /><g
       id="g33" /><g
       id="g35" /><g
       id="g37" /><g
       id="g39" /><g
       id="g41" /></g><g
     id="g43"
     transform="translate(0,-25.078839)" /><g
     id="g45"
     transform="translate(0,-25.078839)" /><g
     id="g47"
     transform="translate(0,-25.078839)" /><g
     id="g49"
     transform="translate(0,-25.078839)" /><g
     id="g51"
     transform="translate(0,-25.078839)" /><g
     id="g53"
     transform="translate(0,-25.078839)" /><g
     id="g55"
     transform="translate(0,-25.078839)" /><g
     id="g57"
     transform="translate(0,-25.078839)" /><g
     id="g59"
     transform="translate(0,-25.078839)" /><g
     id="g61"
     transform="translate(0,-25.078839)" /><g
     id="g63"
     transform="translate(0,-25.078839)" /><g
     id="g65"
     transform="translate(0,-25.078839)" /><g
     id="g67"
     transform="translate(0,-25.078839)" /><g
     id="g69"
     transform="translate(0,-25.078839)" /><g
     id="g71"
     transform="translate(0,-25.078839)" /></svg>