<?xml version="1.0" encoding="UTF-8" standalone="no"?>
<!-- Generator: Adobe Illustrator 19.0.0, SVG Export Plug-In . SVG Version: 6.00 Build 0)  -->

<svg
   xmlns:dc="http://purl.org/dc/elements/1.1/"
   xmlns:cc="http://creativecommons.org/ns#"
   xmlns:rdf="http://www.w3.org/1999/02/22-rdf-syntax-ns#"
   xmlns:svg="http://www.w3.org/2000/svg"
   xmlns="http://www.w3.org/2000/svg"
   xmlns:sodipodi="http://sodipodi.sourceforge.net/DTD/sodipodi-0.dtd"
   xmlns:inkscape="http://www.inkscape.org/namespaces/inkscape"
   version="1.1"
   id="Capa_1"
   x="0px"
   y="0px"
   viewBox="0 0 47.841797 47.841797"
   xml:space="preserve"
   width="50"
   height="50"
   inkscape:version="0.91 r13725"
   sodipodi:docname="logout.svg"><metadata
     id="metadata77"><rdf:RDF><cc:Work
         rdf:about=""><dc:format>image/svg+xml</dc:format><dc:type
           rdf:resource="http://purl.org/dc/dcmitype/StillImage" /><dc:title></dc:title></cc:Work></rdf:RDF></metadata><defs
     id="defs75" /><sodipodi:namedview
     pagecolor="#808080"
     bordercolor="#666666"
     borderopacity="1"
     objecttolerance="10"
     gridtolerance="10"
     guidetolerance="10"
     inkscape:pageopacity="0"
     inkscape:pageshadow="2"
     inkscape:window-width="1440"
     inkscape:window-height="852"
     id="namedview73"
     showgrid="false"
     inkscape:zoom="13"
     inkscape:cx="25"
     inkscape:cy="25"
     inkscape:window-x="0"
     inkscape:window-y="0"
     inkscape:window-maximized="1"
     inkscape:current-layer="Capa_1" /><g
     id="g3"
     transform="matrix(0.06835937,0,0,0.06835937,7.1762696,7.1762696)"><g
       id="g5"><g
         id="g7"><path
           d="m 468.3,255.8 c 0.1,-0.1 0.1,-0.1 0.2,-0.2 0.3,-0.4 0.6,-0.7 0.8,-1.1 0.1,-0.1 0.1,-0.2 0.2,-0.3 0.2,-0.4 0.5,-0.8 0.7,-1.2 0,-0.1 0.1,-0.2 0.1,-0.2 0.2,-0.4 0.4,-0.8 0.6,-1.3 0,-0.1 0,-0.1 0.1,-0.2 0.2,-0.4 0.3,-0.9 0.5,-1.4 0,-0.1 0,-0.2 0.1,-0.2 0.1,-0.5 0.3,-0.9 0.3,-1.4 0,-0.2 0,-0.3 0.1,-0.5 0.1,-0.4 0.1,-0.8 0.2,-1.2 0.1,-0.6 0.1,-1.1 0.1,-1.7 0,-0.6 0,-1.1 -0.1,-1.7 0,-0.4 -0.1,-0.8 -0.2,-1.2 0,-0.2 0,-0.3 -0.1,-0.5 -0.1,-0.5 -0.2,-0.9 -0.3,-1.4 0,-0.1 0,-0.2 -0.1,-0.2 -0.1,-0.5 -0.3,-0.9 -0.5,-1.4 0,-0.1 0,-0.1 -0.1,-0.2 -0.2,-0.4 -0.4,-0.9 -0.6,-1.3 0,-0.1 -0.1,-0.2 -0.1,-0.2 -0.2,-0.4 -0.4,-0.8 -0.7,-1.2 -0.1,-0.1 -0.1,-0.2 -0.2,-0.3 -0.3,-0.4 -0.5,-0.8 -0.8,-1.1 -0.1,-0.1 -0.1,-0.1 -0.2,-0.2 -0.4,-0.4 -0.7,-0.9 -1.2,-1.3 l -98.9,-98.8 c -6.7,-6.7 -17.6,-6.7 -24.3,0 -6.7,6.7 -6.7,17.6 0,24.3 l 69.6,69.6 -276.7,0 c -9.5,0 -17.2,7.7 -17.2,17.1 0,9.5 7.7,17.2 17.2,17.2 l 276.8,0 -69.1,69.1 c -6.7,6.7 -6.7,17.6 0,24.3 3.3,3.3 7.7,5 12.1,5 4.4,0 8.8,-1.7 12.1,-5 L 467,257.2 c 0.5,-0.6 0.9,-1 1.3,-1.4 z"
           id="path9"
           inkscape:connector-curvature="0"
           style="fill:#ffffff" /><path
           d="m 110.7,34.3 128,0 c 9.5,0 17.2,-7.7 17.2,-17.1 C 255.9,7.7 248.2,0 238.7,0 l -128,0 C 59.4,0 17.6,41.8 17.6,93.1 l 0,303.7 c 0,51.3 41.8,93.1 93.1,93.1 l 125.9,0 c 9.5,0 17.2,-7.7 17.2,-17.1 0,-9.5 -7.7,-17.2 -17.2,-17.2 l -125.9,0 c -32.4,0 -58.8,-26.4 -58.8,-58.8 l 0,-303.7 C 52,60.6 78.3,34.3 110.7,34.3 Z"
           id="path11"
           inkscape:connector-curvature="0"
           style="fill:#ffffff" /></g></g><g
       id="g13" /><g
       id="g15" /><g
       id="g17" /><g
       id="g19" /><g
       id="g21" /><g
       id="g23" /><g
       id="g25" /><g
       id="g27" /><g
       id="g29" /><g
       id="g31" /><g
       id="g33" /><g
       id="g35" /><g
       id="g37" /><g
       id="g39" /><g
       id="g41" /></g><g
     id="g43"
     transform="translate(0,-442.05818)" /><g
     id="g45"
     transform="translate(0,-442.05818)" /><g
     id="g47"
     transform="translate(0,-442.05818)" /><g
     id="g49"
     transform="translate(0,-442.05818)" /><g
     id="g51"
     transform="translate(0,-442.05818)" /><g
     id="g53"
     transform="translate(0,-442.05818)" /><g
     id="g55"
     transform="translate(0,-442.05818)" /><g
     id="g57"
     transform="translate(0,-442.05818)" /><g
     id="g59"
     transform="translate(0,-442.05818)" /><g
     id="g61"
     transform="translate(0,-442.05818)" /><g
     id="g63"
     transform="translate(0,-442.05818)" /><g
     id="g65"
     transform="translate(0,-442.05818)" /><g
     id="g67"
     transform="translate(0,-442.05818)" /><g
     id="g69"
     transform="translate(0,-442.05818)" /><g
     id="g71"
     transform="translate(0,-442.05818)" /></svg>