<?xml version="1.0" encoding="UTF-8" standalone="no"?>
<!-- Generator: Adobe Illustrator 16.0.0, SVG Export Plug-In . SVG Version: 6.00 Build 0)  -->

<svg
   xmlns:dc="http://purl.org/dc/elements/1.1/"
   xmlns:cc="http://creativecommons.org/ns#"
   xmlns:rdf="http://www.w3.org/1999/02/22-rdf-syntax-ns#"
   xmlns:svg="http://www.w3.org/2000/svg"
   xmlns="http://www.w3.org/2000/svg"
   xmlns:sodipodi="http://sodipodi.sourceforge.net/DTD/sodipodi-0.dtd"
   xmlns:inkscape="http://www.inkscape.org/namespaces/inkscape"
   version="1.1"
   id="Capa_1"
   x="0px"
   y="0px"
   width="50"
   height="50"
   viewBox="0 0 53.531738 53.531738"
   xml:space="preserve"
   inkscape:version="0.91 r13725"
   sodipodi:docname="photo-camera.svg"><metadata
     id="metadata45"><rdf:RDF><cc:Work
         rdf:about=""><dc:format>image/svg+xml</dc:format><dc:type
           rdf:resource="http://purl.org/dc/dcmitype/StillImage" /><dc:title></dc:title></cc:Work></rdf:RDF></metadata><defs
     id="defs43" /><sodipodi:namedview
     pagecolor="#808080"
     bordercolor="#666666"
     borderopacity="1"
     objecttolerance="10"
     gridtolerance="10"
     guidetolerance="10"
     inkscape:pageopacity="0"
     inkscape:pageshadow="2"
     inkscape:window-width="1440"
     inkscape:window-height="852"
     id="namedview41"
     showgrid="false"
     inkscape:zoom="13"
     inkscape:cx="25"
     inkscape:cy="25"
     inkscape:window-x="0"
     inkscape:window-y="0"
     inkscape:window-maximized="1"
     inkscape:current-layer="Capa_1" /><g
     id="g3"
     transform="matrix(0.05859375,0,0,0.05859375,10.706347,10.706347)"><g
       id="g5"><path
         d="m 526.76,131.045 c -14.277,-14.274 -31.498,-21.413 -51.675,-21.413 l -63.953,0 -14.558,-38.826 C 392.956,61.481 386.345,53.438 376.728,46.678 367.115,39.921 357.266,36.54 347.177,36.54 l -146.181,0 c -10.088,0 -19.939,3.381 -29.552,10.138 -9.613,6.76 -16.225,14.803 -19.842,24.128 l -14.56,38.826 -63.953,0 c -20.179,0 -37.401,7.139 -51.678,21.413 C 7.137,145.32 0,162.544 0,182.721 l 0,255.813 c 0,20.178 7.137,37.404 21.411,51.675 14.277,14.277 31.5,21.416 51.678,21.416 l 401.989,0 c 20.177,0 37.397,-7.139 51.675,-21.416 14.273,-14.271 21.412,-31.497 21.412,-51.675 l 0,-255.813 C 548.169,162.544 541.03,145.32 526.76,131.045 Z M 364.446,400.993 c -25.029,25.03 -55.147,37.548 -90.362,37.548 -35.215,0 -65.331,-12.518 -90.362,-37.548 -25.031,-25.026 -37.544,-55.151 -37.544,-90.358 0,-35.218 12.517,-65.333 37.544,-90.364 25.028,-25.031 55.148,-37.544 90.362,-37.544 35.214,0 65.333,12.516 90.362,37.544 25.03,25.028 37.545,55.146 37.545,90.364 0,35.207 -12.514,65.329 -37.545,90.358 z"
         id="path7"
         inkscape:connector-curvature="0"
         style="fill:#ffffff" /><path
         d="m 274.084,228.403 c -22.651,0 -42.018,8.042 -58.102,24.128 -16.084,16.084 -24.126,35.448 -24.126,58.104 0,22.647 8.042,42.014 24.126,58.098 16.084,16.081 35.45,24.123 58.102,24.123 22.648,0 42.017,-8.042 58.101,-24.123 16.084,-16.084 24.127,-35.45 24.127,-58.098 0,-22.655 -8.043,-42.019 -24.127,-58.104 -16.083,-16.085 -35.453,-24.128 -58.101,-24.128 z"
         id="path9"
         inkscape:connector-curvature="0"
         style="fill:#ffffff" /></g></g><g
     id="g11"
     transform="matrix(0.05859375,0,0,0.05859375,0,-12.986287)" /><g
     id="g13"
     transform="matrix(0.05859375,0,0,0.05859375,0,-12.986287)" /><g
     id="g15"
     transform="matrix(0.05859375,0,0,0.05859375,0,-12.986287)" /><g
     id="g17"
     transform="matrix(0.05859375,0,0,0.05859375,0,-12.986287)" /><g
     id="g19"
     transform="matrix(0.05859375,0,0,0.05859375,0,-12.986287)" /><g
     id="g21"
     transform="matrix(0.05859375,0,0,0.05859375,0,-12.986287)" /><g
     id="g23"
     transform="matrix(0.05859375,0,0,0.05859375,0,-12.986287)" /><g
     id="g25"
     transform="matrix(0.05859375,0,0,0.05859375,0,-12.986287)" /><g
     id="g27"
     transform="matrix(0.05859375,0,0,0.05859375,0,-12.986287)" /><g
     id="g29"
     transform="matrix(0.05859375,0,0,0.05859375,0,-12.986287)" /><g
     id="g31"
     transform="matrix(0.05859375,0,0,0.05859375,0,-12.986287)" /><g
     id="g33"
     transform="matrix(0.05859375,0,0,0.05859375,0,-12.986287)" /><g
     id="g35"
     transform="matrix(0.05859375,0,0,0.05859375,0,-12.986287)" /><g
     id="g37"
     transform="matrix(0.05859375,0,0,0.05859375,0,-12.986287)" /><g
     id="g39"
     transform="matrix(0.05859375,0,0,0.05859375,0,-12.986287)" /></svg>