<?xml version="1.0" encoding="UTF-8" standalone="no"?>
<svg
   xmlns:dc="http://purl.org/dc/elements/1.1/"
   xmlns:cc="http://creativecommons.org/ns#"
   xmlns:rdf="http://www.w3.org/1999/02/22-rdf-syntax-ns#"
   xmlns:svg="http://www.w3.org/2000/svg"
   xmlns="http://www.w3.org/2000/svg"
   xmlns:sodipodi="http://sodipodi.sourceforge.net/DTD/sodipodi-0.dtd"
   xmlns:inkscape="http://www.inkscape.org/namespaces/inkscape"
   version="1.1"
   viewBox="0 0 24 24"
   enable-background="new 0 0 24 24"
   id="svg2"
   inkscape:version="0.91 r13725"
   sodipodi:docname="plus.svg">
  <metadata
     id="metadata10">
    <rdf:RDF>
      <cc:Work
         rdf:about="">
        <dc:format>image/svg+xml</dc:format>
        <dc:type
           rdf:resource="http://purl.org/dc/dcmitype/StillImage" />
      </cc:Work>
    </rdf:RDF>
  </metadata>
  <defs
     id="defs8" />
  <sodipodi:namedview
     pagecolor="#ffffff"
     bordercolor="#666666"
     borderopacity="1"
     objecttolerance="10"
     gridtolerance="10"
     guidetolerance="10"
     inkscape:pageopacity="0"
     inkscape:pageshadow="2"
     inkscape:window-width="691"
     inkscape:window-height="480"
     id="namedview6"
     showgrid="false"
     inkscape:zoom="9.8333333"
     inkscape:cx="12"
     inkscape:cy="12"
     inkscape:window-x="0"
     inkscape:window-y="0"
     inkscape:window-maximized="0"
     inkscape:current-layer="svg2" />
  <path
     d="m23,10h-8.5c-0.3,0-0.5-0.2-0.5-0.5v-8.5c0-0.6-0.4-1-1-1h-2c-0.6,0-1,0.4-1,1v8.5c0,0.3-0.2,0.5-0.5,0.5h-8.5c-0.6,0-1,0.4-1,1v2c0,0.6 0.4,1 1,1h8.5c0.3,0 0.5,0.2 0.5,0.5v8.5c0,0.6 0.4,1 1,1h2c0.6,0 1-0.4 1-1v-8.5c0-0.3 0.2-0.5 0.5-0.5h8.5c0.6,0 1-0.4 1-1v-2c0-0.6-0.4-1-1-1z"
     id="path4"
     style="fill:#ffffff" />
</svg>
