<?xml version="1.0" encoding="UTF-8" standalone="no"?>
<svg
   xmlns:dc="http://purl.org/dc/elements/1.1/"
   xmlns:cc="http://creativecommons.org/ns#"
   xmlns:rdf="http://www.w3.org/1999/02/22-rdf-syntax-ns#"
   xmlns:svg="http://www.w3.org/2000/svg"
   xmlns="http://www.w3.org/2000/svg"
   xmlns:sodipodi="http://sodipodi.sourceforge.net/DTD/sodipodi-0.dtd"
   xmlns:inkscape="http://www.inkscape.org/namespaces/inkscape"
   version="1.1"
   viewBox="0 0 50 50"
   enable-background="new 0 0 24 24"
   id="svg2"
   inkscape:version="0.91 r13725"
   sodipodi:docname="plus.svg"
   width="50"
   height="50">
  <metadata
     id="metadata10">
    <rdf:RDF>
      <cc:Work
         rdf:about="">
        <dc:format>image/svg+xml</dc:format>
        <dc:type
           rdf:resource="http://purl.org/dc/dcmitype/StillImage" />
        <dc:title />
      </cc:Work>
    </rdf:RDF>
  </metadata>
  <defs
     id="defs8" />
  <sodipodi:namedview
     pagecolor="#808080"
     bordercolor="#666666"
     borderopacity="1"
     objecttolerance="10"
     gridtolerance="10"
     guidetolerance="10"
     inkscape:pageopacity="0"
     inkscape:pageshadow="2"
     inkscape:window-width="1440"
     inkscape:window-height="852"
     id="namedview6"
     showgrid="false"
     inkscape:zoom="9.8333333"
     inkscape:cx="4.3220339"
     inkscape:cy="20.135593"
     inkscape:window-x="0"
     inkscape:window-y="0"
     inkscape:window-maximized="1"
     inkscape:current-layer="svg2" />
  <path
     d="m 41.041667,22.083333 -12.395834,0 c -0.4375,0 -0.729166,-0.291666 -0.729166,-0.729166 l 0,-12.3958337 C 27.916667,8.0833333 27.333333,7.5 26.458333,7.5 l -2.916666,0 c -0.875,0 -1.458334,0.5833333 -1.458334,1.4583333 l 0,12.3958337 c 0,0.4375 -0.291666,0.729166 -0.729166,0.729166 l -12.395834,0 c -0.875,0 -1.458333,0.583334 -1.458333,1.458334 l 0,2.916666 c 0,0.875 0.583333,1.458334 1.458333,1.458334 l 12.395834,0 c 0.4375,0 0.729166,0.291666 0.729166,0.729166 l 0,12.395834 c 0,0.875 0.583334,1.458333 1.458334,1.458333 l 2.916666,0 c 0.875,0 1.458334,-0.583333 1.458334,-1.458333 l 0,-12.395834 c 0,-0.4375 0.291666,-0.729166 0.729166,-0.729166 l 12.395834,0 c 0.875,0 1.458333,-0.583334 1.458333,-1.458334 l 0,-2.916666 c 0,-0.875 -0.583333,-1.458334 -1.458333,-1.458334 z"
     id="path4"
     style="fill:#ffffff"
     inkscape:connector-curvature="0" />
</svg>
