<?xml version="1.0" encoding="UTF-8" standalone="no"?>
<!-- Generator: Adobe Illustrator 19.0.0, SVG Export Plug-In . SVG Version: 6.00 Build 0)  -->

<svg
   xmlns:dc="http://purl.org/dc/elements/1.1/"
   xmlns:cc="http://creativecommons.org/ns#"
   xmlns:rdf="http://www.w3.org/1999/02/22-rdf-syntax-ns#"
   xmlns:svg="http://www.w3.org/2000/svg"
   xmlns="http://www.w3.org/2000/svg"
   xmlns:sodipodi="http://sodipodi.sourceforge.net/DTD/sodipodi-0.dtd"
   xmlns:inkscape="http://www.inkscape.org/namespaces/inkscape"
   version="1.1"
   id="Capa_1"
   x="0px"
   y="0px"
   viewBox="0 0 50.000001 50.000001"
   xml:space="preserve"
   inkscape:version="0.91 r13725"
   sodipodi:docname="refresh.svg"
   width="50"
   height="50"><metadata
     id="metadata43"><rdf:RDF><cc:Work
         rdf:about=""><dc:format>image/svg+xml</dc:format><dc:type
           rdf:resource="http://purl.org/dc/dcmitype/StillImage" /><dc:title></dc:title></cc:Work></rdf:RDF></metadata><defs
     id="defs41" /><sodipodi:namedview
     pagecolor="#ffffff"
     bordercolor="#666666"
     borderopacity="1"
     objecttolerance="10"
     gridtolerance="10"
     guidetolerance="10"
     inkscape:pageopacity="0"
     inkscape:pageshadow="2"
     inkscape:window-width="1440"
     inkscape:window-height="852"
     id="namedview39"
     showgrid="false"
     inkscape:zoom="13"
     inkscape:cx="25"
     inkscape:cy="25"
     inkscape:window-x="0"
     inkscape:window-y="0"
     inkscape:window-maximized="1"
     inkscape:current-layer="g5" /><g
     id="g3"
     style="fill:#ffffff;fill-opacity:1"
     transform="translate(0,-441.23599)"><g
       id="g5"
       style="fill:#ffffff;fill-opacity:1"><path
         d="m 13.413214,467.2864 c -0.183211,-1.58784 -0.03053,-3.1207 0.384744,-4.53753 1.380192,-4.70854 5.710086,-8.17123 10.84611,-8.2323 l 0,-3.07795 c 0,-0.171 0.213747,-0.26261 0.354209,-0.15878 l 6.333005,4.65356 c 0.10382,0.0794 0.10382,0.23818 0,0.31146 l -6.326898,4.65357 c -0.146569,0.10382 -0.354208,0.0122 -0.354208,-0.15878 l 0,-3.07185 c -3.377196,0.055 -6.259721,2.13747 -7.499451,5.08107 -0.470242,1.11147 -0.708417,2.33899 -0.641239,3.62758 0.09161,1.77104 0.757273,3.40162 1.807685,4.72074 0.561848,0.70232 0.427493,1.72829 -0.299246,2.25961 -0.690095,0.50689 -1.655009,0.36643 -2.186321,-0.30535 -1.300801,-1.62448 -2.168002,-3.60316 -2.41839,-5.76505 z m 18.284491,-5.91162 c 1.056518,1.31301 1.722186,2.9497 1.807685,4.72074 0.06718,1.2947 -0.177105,2.52222 -0.64124,3.62759 -1.23973,2.94359 -4.122255,5.0322 -7.49945,5.08106 l 0,-3.07184 c 0,-0.171 -0.213747,-0.26261 -0.354209,-0.15878 l -6.333004,4.65356 c -0.103821,0.0794 -0.103821,0.23817 0,0.31146 l 6.326897,4.65357 c 0.146569,0.10382 0.354209,0.0122 0.354209,-0.15879 l 0,-3.07795 c 5.136024,-0.055 9.472026,-3.51766 10.84611,-8.23229 0.415279,-1.41683 0.561848,-2.94971 0.384744,-4.53754 -0.244282,-2.16189 -1.111483,-4.14057 -2.412282,-5.76505 -0.53742,-0.67177 -1.496226,-0.81223 -2.186322,-0.30535 -0.720632,0.53131 -0.854987,1.5573 -0.293138,2.25961 z"
         id="path7"
         style="fill:#ffffff;fill-opacity:1"
         inkscape:connector-curvature="0" /></g></g><g
     id="g9"
     transform="translate(0,-441.23599)" /><g
     id="g11"
     transform="translate(0,-441.23599)" /><g
     id="g13"
     transform="translate(0,-441.23599)" /><g
     id="g15"
     transform="translate(0,-441.23599)" /><g
     id="g17"
     transform="translate(0,-441.23599)" /><g
     id="g19"
     transform="translate(0,-441.23599)" /><g
     id="g21"
     transform="translate(0,-441.23599)" /><g
     id="g23"
     transform="translate(0,-441.23599)" /><g
     id="g25"
     transform="translate(0,-441.23599)" /><g
     id="g27"
     transform="translate(0,-441.23599)" /><g
     id="g29"
     transform="translate(0,-441.23599)" /><g
     id="g31"
     transform="translate(0,-441.23599)" /><g
     id="g33"
     transform="translate(0,-441.23599)" /><g
     id="g35"
     transform="translate(0,-441.23599)" /><g
     id="g37"
     transform="translate(0,-441.23599)" /></svg>