<?xml version="1.0" encoding="UTF-8" standalone="no"?>
<!-- Generator: Adobe Illustrator 19.0.0, SVG Export Plug-In . SVG Version: 6.00 Build 0)  -->

<svg
   xmlns:dc="http://purl.org/dc/elements/1.1/"
   xmlns:cc="http://creativecommons.org/ns#"
   xmlns:rdf="http://www.w3.org/1999/02/22-rdf-syntax-ns#"
   xmlns:svg="http://www.w3.org/2000/svg"
   xmlns="http://www.w3.org/2000/svg"
   xmlns:sodipodi="http://sodipodi.sourceforge.net/DTD/sodipodi-0.dtd"
   xmlns:inkscape="http://www.inkscape.org/namespaces/inkscape"
   version="1.1"
   id="Capa_1"
   x="0px"
   y="0px"
   viewBox="0 0 50.000001 50.000001"
   xml:space="preserve"
   inkscape:version="0.91 r13725"
   sodipodi:docname="refresh.svg"
   width="50"
   height="50"><metadata
     id="metadata43"><rdf:RDF><cc:Work
         rdf:about=""><dc:format>image/svg+xml</dc:format><dc:type
           rdf:resource="http://purl.org/dc/dcmitype/StillImage" /><dc:title /></cc:Work></rdf:RDF></metadata><defs
     id="defs41" /><sodipodi:namedview
     pagecolor="#808080"
     bordercolor="#666666"
     borderopacity="1"
     objecttolerance="10"
     gridtolerance="10"
     guidetolerance="10"
     inkscape:pageopacity="0"
     inkscape:pageshadow="2"
     inkscape:window-width="1440"
     inkscape:window-height="852"
     id="namedview39"
     showgrid="false"
     inkscape:zoom="13"
     inkscape:cx="0.61538431"
     inkscape:cy="25"
     inkscape:window-x="0"
     inkscape:window-y="0"
     inkscape:window-maximized="1"
     inkscape:current-layer="g5" /><g
     id="g3"
     style="fill:#ffffff;fill-opacity:1"
     transform="translate(0,-441.23599)"><g
       id="g5"
       style="fill:#ffffff;fill-opacity:1"><path
         d="m 11.482082,467.46148 c -0.213746,-1.85248 -0.03562,-3.64082 0.448868,-5.29379 1.610224,-5.49329 6.661767,-9.5331 12.653796,-9.60435 l 0,-3.59094 c 0,-0.1995 0.249371,-0.30638 0.413244,-0.18524 l 7.388506,5.42915 c 0.121123,0.0926 0.121123,0.27788 0,0.36337 l -7.381381,5.42917 c -0.170998,0.12112 -0.413243,0.0142 -0.413243,-0.18525 l 0,-3.58382 c -3.940062,0.0642 -7.303008,2.49371 -8.74936,5.92791 -0.548616,1.29672 -0.826487,2.72882 -0.748112,4.23218 0.106878,2.06621 0.883485,3.96856 2.108966,5.50753 0.655489,0.81937 0.498741,2.01634 -0.349121,2.63621 -0.805111,0.59137 -1.930844,0.4275 -2.550708,-0.35624 -1.517601,-1.89523 -2.529336,-4.20369 -2.821455,-6.72589 z m 21.331908,-6.89689 c 1.232604,1.53184 2.009217,3.44131 2.108965,5.50753 0.07838,1.51048 -0.206622,2.94259 -0.748113,4.23219 -1.446352,3.43419 -4.809298,5.8709 -8.749359,5.9279 l 0,-3.58381 c 0,-0.1995 -0.249371,-0.30638 -0.413244,-0.18525 l -7.388505,5.42916 c -0.121124,0.0926 -0.121124,0.27786 0,0.36337 l 7.381381,5.42916 c 0.170997,0.12113 0.413243,0.0142 0.413243,-0.18525 l 0,-3.59094 c 5.992029,-0.0642 11.050698,-4.10394 12.653796,-9.60434 0.484492,-1.65297 0.65549,-3.44133 0.448868,-5.2938 -0.284995,-2.52221 -1.29673,-4.83067 -2.814329,-6.72589 -0.62699,-0.78373 -1.745597,-0.9476 -2.550709,-0.35624 -0.840737,0.61986 -0.997485,1.81685 -0.341994,2.63621 z"
         id="path7"
         style="fill:#ffffff;fill-opacity:1"
         inkscape:connector-curvature="0" /></g></g><g
     id="g9"
     transform="translate(0,-441.23599)" /><g
     id="g11"
     transform="translate(0,-441.23599)" /><g
     id="g13"
     transform="translate(0,-441.23599)" /><g
     id="g15"
     transform="translate(0,-441.23599)" /><g
     id="g17"
     transform="translate(0,-441.23599)" /><g
     id="g19"
     transform="translate(0,-441.23599)" /><g
     id="g21"
     transform="translate(0,-441.23599)" /><g
     id="g23"
     transform="translate(0,-441.23599)" /><g
     id="g25"
     transform="translate(0,-441.23599)" /><g
     id="g27"
     transform="translate(0,-441.23599)" /><g
     id="g29"
     transform="translate(0,-441.23599)" /><g
     id="g31"
     transform="translate(0,-441.23599)" /><g
     id="g33"
     transform="translate(0,-441.23599)" /><g
     id="g35"
     transform="translate(0,-441.23599)" /><g
     id="g37"
     transform="translate(0,-441.23599)" /></svg>